# xmcd CD database file
#
# Track frame offsets:
#	150
#	15032
#	25216
#	36942
#	53832
#	67012
#	80664
#	92268
#	105040
#	118159
#	130165
#	147686
#	161181
#	179198
#	193040
#	208833
#	226973
#	244512
#	257124
#	271156
#
# Disc length: 3841 seconds
#
# Revision: 0
# Processed by: cddbd v1.5.2PL0 Copyright (c) Steve Scherf et al.
# Submitted via: CDex 1.51
#
DISCID=180eff14
DTITLE=LOS CHARROS - 20 GRANDES EXITOS
DYEAR=2007
DGENRE=Salsa
TTITLE0=Amores como el nuestro
TTITLE1=Como una flor
TTITLE2=La dominguera
TTITLE3=Si no te hubieras ido
TTITLE4=Juan el Cartero
TTITLE5=Pero no puedo
TTITLE6=La guitarra
TTITLE7=La pollera colorada
TTITLE8=La puerta
TTITLE9=Tres heridas
TTITLE10=Tu ingratitud
TTITLE11=Indiferente
TTITLE12=La ùltima canciòn
TTITLE13=La falta que me haces
TTITLE14=La distancia
TTITLE15=Como dejar de amarte
TTITLE16=Enamorado
TTITLE17=Juguete Caro
TTITLE18=Que te pasa
TTITLE19=Quiero saber de ti
EXTD=YEAR: 2007
EXTT0=
EXTT1=
EXTT2=
EXTT3=
EXTT4=
EXTT5=
EXTT6=
EXTT7=
EXTT8=
EXTT9=
EXTT10=
EXTT11=
EXTT12=
EXTT13=
EXTT14=
EXTT15=
EXTT16=
EXTT17=
EXTT18=
EXTT19=
PLAYORDER=
